<?xml version="1.0" encoding="UTF-8"?>
<svg id="Calque_2" data-name="Calque 2" xmlns="http://www.w3.org/2000/svg" viewBox="0 0 110.49 18.61">
  <defs>
    <style>
      .cls-1 {
        fill: #ff9700;
      }

      .cls-1, .cls-2 {
        stroke-width: 0px;
      }

      .cls-2 {
        fill: #00c;
      }
    </style>
  </defs>
  <g id="Calque_2-2" data-name="Calque 2">
    <path class="cls-2" d="m63.6,11.07c.03.95.1,1.85.3,2.74.1.43.23.85.43,1.24.34.7.89,1.12,1.66,1.22.83.11,1.62-.03,2.31-.54.44-.32.74-.76.96-1.25.26-.59.42-1.21.49-1.85.03-.31.05-.62.05-.93,0-.29-.07-.38-.36-.43-.21-.04-.42-.07-.63-.08-.56-.03-1.13-.06-1.7-.06-.25,0-.5.05-.76.06-.14,0-.29.01-.43-.01-.32-.06-.53-.29-.57-.6-.04-.31.11-.61.39-.76.09-.05.19-.08.29-.1.24-.04.48-.09.73-.09.96-.03,1.91,0,2.86.13.12.02.23.05.35.08.81.24,1.29.8,1.34,1.65.02.39,0,.78-.04,1.16-.09.92-.31,1.82-.73,2.65-.79,1.57-2.06,2.41-3.82,2.52-.64.04-1.27-.05-1.86-.29-1-.4-1.64-1.16-2.05-2.13-.32-.75-.5-1.54-.58-2.35-.07-.66-.14-1.33-.16-1.99-.05-1.69.07-3.38.44-5.03.23-1,.54-1.97,1.05-2.87.52-.9,1.2-1.65,2.1-2.18.65-.38,1.35-.59,2.1-.54,1.08.07,1.85.63,2.32,1.6.28.58.38,1.21.43,1.84.06.71.01,1.42-.1,2.12-.02.12-.05.25-.1.37-.05.12-.12.24-.21.34-.2.22-.52.27-.77.15-.25-.12-.39-.37-.35-.67.03-.27.11-.53.12-.8.05-.82.06-1.64-.21-2.43-.04-.11-.08-.22-.14-.33-.29-.55-.81-.79-1.42-.67-.66.13-1.21.47-1.68.94-.69.68-1.09,1.52-1.38,2.42-.31.95-.49,1.93-.6,2.92-.1.97-.15,1.94-.09,2.86Z"/>
    <path class="cls-2" d="m11.45,10.05c.04,1.43.23,2.85.73,4.21.19.52.43,1.03.75,1.49.62.89,1.49,1.08,2.48.68.62-.25,1.06-.71,1.36-1.31.29-.57.39-1.18.48-1.81.03-.23.09-.46.19-.67.14-.3.44-.43.73-.39.33.05.52.26.6.57.03.12.05.26.04.39-.08.97-.26,1.91-.75,2.77-.54.96-1.33,1.65-2.38,2-.96.32-1.9.29-2.8-.21-.65-.36-1.12-.9-1.49-1.53-.54-.93-.9-1.93-1.13-2.98-.32-1.41-.4-2.84-.34-4.28.05-1.36.21-2.7.59-4.01.26-.93.66-1.8,1.25-2.56.54-.7,1.18-1.27,2.04-1.57,1.4-.49,2.86.05,3.58,1.34.31.55.49,1.15.57,1.78.09.7.12,1.4-.01,2.1-.03.19-.08.38-.16.55-.16.35-.48.49-.81.4-.32-.09-.52-.4-.48-.77.02-.24.08-.48.1-.72.06-.77-.02-1.53-.31-2.25-.06-.14-.13-.28-.22-.41-.39-.59-1.02-.79-1.69-.57-.54.18-.95.54-1.29.97-.57.71-.92,1.53-1.13,2.41-.27,1.11-.4,2.24-.45,3.38-.01.33-.03.66-.04,1Z"/>
    <path class="cls-2" d="m78.47,17.77c-1.16.08-2.21-.22-3.08-1-.69-.61-1.07-1.41-1.22-2.31-.08-.45-.1-.91-.13-1.37-.02-.29-.04-.32-.34-.35-.35-.04-.69-.07-1.03-.13-.13-.02-.27-.07-.39-.14-.3-.17-.42-.5-.32-.8.09-.29.38-.48.71-.46.29.02.59.06.88.09.1.01.21.02.31.02.3.02.32,0,.38-.29.16-.73.43-1.41.84-2.04.5-.76,1.18-1.29,2.03-1.6.85-.3,1.7-.32,2.56-.05,1.28.41,2.12,1.72,1.97,3.06-.08.68-.31,1.28-.8,1.77-.28.28-.6.47-.98.58-.44.13-.9.21-1.36.2-.88-.03-1.75-.05-2.63-.07-.23,0-.27.02-.28.24-.02.61.07,1.2.32,1.76.38.86,1.09,1.25,1.99,1.33.25.02.5,0,.75-.04.53-.08.92-.38,1.19-.84.11-.19.2-.39.3-.58.12-.21.29-.36.54-.41.45-.09.85.2.89.66.01.13,0,.28-.05.41-.51,1.36-1.52,2.25-2.98,2.36-.03,0-.05,0-.08,0Zm-.07-6.31s0,.01,0,0c.24-.02.49-.06.73-.1.34-.06.62-.2.8-.52.37-.66.18-1.79-.86-2.03-.78-.18-1.51-.04-2.14.46-.63.5-.93,1.2-1.12,1.95-.04.16,0,.21.2.21.8.01,1.6.02,2.4.04Z"/>
    <path class="cls-2" d="m52.52,13.27c-.87-.01-1.79-.03-2.71-.04-.13,0-.26-.01-.39,0-.21,0-.25.04-.24.25.03.33.05.66.11.98.09.46.27.9.55,1.28.32.43.73.71,1.26.82.71.14,1.4.11,2.07-.19.35-.16.63-.4.77-.78.03-.08.07-.16.11-.24.21-.41.61-.59,1-.44.37.14.56.54.44.97-.16.55-.43,1.02-.87,1.4-.49.42-1.07.68-1.7.8-.8.16-1.59.16-2.38-.06-1.17-.33-1.94-1.11-2.43-2.2-.33-.75-.49-1.54-.5-2.36,0-.03,0-.07,0-.1-.01-.18-.04-.21-.22-.22-.26-.01-.52-.01-.78-.03-.15,0-.31-.02-.46-.07-.3-.09-.47-.36-.46-.66,0-.28.19-.53.48-.61.15-.04.31-.06.46-.06.3,0,.59,0,.89,0,.24,0,.26-.02.32-.25.2-.77.54-1.49,1.02-2.12.55-.72,1.22-1.31,2.13-1.56.93-.26,1.81-.12,2.62.4.95.61,1.39,1.52,1.46,2.63.03.49-.04.95-.29,1.38-.29.5-.72.82-1.28.94-.3.07-.62.09-.98.14Zm-3.1-1.53c.21.01.37.02.53.03.3,0,.61,0,.91,0,.62-.02,1.25-.04,1.87-.06.12,0,.24-.03.36-.06.24-.06.38-.23.42-.48.07-.41-.04-.79-.23-1.15-.14-.28-.37-.48-.65-.62-.69-.32-1.34-.21-1.92.26-.59.48-.98,1.1-1.23,1.8-.03.07-.03.15-.06.28Z"/>
    <path class="cls-2" d="m31.16,15.09c-.07.15-.11.24-.15.33-.29.7-.71,1.32-1.33,1.77-.54.4-1.15.61-1.83.56-.56-.05-1.03-.28-1.4-.72-.31-.37-.5-.79-.57-1.27-.29-1.92,1.13-3.49,2.72-3.82.36-.08.72-.11,1.09-.07.2.02.25-.02.23-.21-.06-.69-.13-1.39-.43-2.03-.25-.54-.62-.97-1.16-1.23-.58-.28-1.06-.12-1.35.45-.27.53-.33,1.11-.27,1.7.02.2.06.4.08.59.01.14.01.28-.01.41-.06.27-.23.45-.5.5-.28.06-.52-.03-.68-.27-.07-.1-.12-.21-.15-.33-.23-.95-.27-1.89.05-2.83.23-.69.63-1.26,1.28-1.61.72-.38,1.46-.34,2.19-.01,1.03.47,1.71,1.27,2.09,2.32.3.81.42,1.65.42,2.51,0,.52.1.93.48,1.33.52.55.74,1.29.89,2.03.08.4.14.8.19,1.21.02.14.02.28,0,.41-.06.39-.34.63-.71.65-.36.01-.68-.22-.76-.59-.06-.27-.1-.55-.15-.82-.05-.25-.09-.5-.14-.74-.01-.06-.05-.12-.11-.23Zm-3.79.19c.05.18.07.36.14.52.14.33.42.45.77.36.42-.12.73-.39.97-.75.34-.5.5-1.06.59-1.65.04-.23-.01-.29-.25-.33-.3-.06-.59,0-.87.09-.78.26-1.33.99-1.35,1.76Z"/>
    <path class="cls-1" d="m3.06,6.32c-.06.06-.12.12-.18.18-.12.12-.24.25-.38.36-.1.08-.21.15-.33.2-.32.13-.65.16-.94-.07-.29-.23-.36-.55-.31-.89.08-.5.35-.88.71-1.21.08-.07.16-.15.28-.26-.11-.06-.19-.1-.26-.15-.3-.16-.6-.31-.89-.49-.24-.15-.45-.36-.59-.62-.07-.13-.13-.27-.17-.41-.1-.4.13-.78.54-.92.48-.16.92-.05,1.35.18.08.04.15.08.23.12.01,0,.03,0,.08-.01,0-.1.01-.21,0-.31-.02-.4.02-.8.17-1.18.09-.24.22-.45.41-.63.39-.35.87-.27,1.1.2.07.15.12.33.15.5.03.23.03.47.05.7,0,.09.02.18.03.33.12-.09.21-.14.28-.21.42-.36.9-.57,1.45-.55.22,0,.45.05.65.15.55.25.73.85.44,1.38-.15.27-.38.45-.64.59-.1.05-.19.1-.28.16,0,.02,0,.04,0,.06.09.04.18.09.27.12.33.13.63.3.88.55.18.18.31.39.36.65.08.48-.14.86-.61,1.01-.45.15-.88.05-1.3-.1-.1-.04-.21-.07-.35-.12.01.12.02.2.03.27.05.3.07.61-.01.91-.05.19-.12.39-.23.55-.32.5-.96.57-1.4.17-.26-.24-.4-.54-.48-.88-.02-.11-.05-.21-.07-.32-.02,0-.05-.02-.07-.02Z"/>
    <path class="cls-1" d="m106.74,16.02c-.04.17-.07.28-.09.4-.09.51-.22,1-.49,1.44-.21.33-.48.59-.86.7-.61.18-1.16-.06-1.47-.61-.28-.49-.34-1.03-.26-1.58.03-.2.08-.39.12-.59.02-.09.03-.19.06-.33-.21,0-.38-.01-.56,0-.44.02-.86-.07-1.26-.26-.59-.28-.87-.84-.75-1.45.06-.27.21-.49.41-.67.26-.24.57-.39.91-.47.1-.02.21-.05.35-.09-.06-.17-.1-.3-.15-.43-.24-.61-.34-1.24-.31-1.89.01-.22.06-.44.14-.64.27-.67.96-.91,1.59-.55.48.28.78.71,1.02,1.2.06.13.12.25.21.43.12-.13.2-.22.27-.31.46-.57,1.01-1.03,1.74-1.21.39-.1.77-.07,1.14.08.46.19.75.53.85,1.03.12.62-.03,1.17-.41,1.66-.24.3-.53.56-.8.84-.08.08-.17.14-.3.25.14.08.23.15.33.19.5.21.99.45,1.41.81.22.18.43.39.59.63.68.99.16,2.12-1.04,2.25-.74.08-1.4-.13-2.01-.55-.11-.08-.23-.15-.4-.26Z"/>
    <path class="cls-2" d="m22.98,17.56c-.17,0-.35.01-.52.02-.97.02-1.58-.51-1.68-1.47-.02-.23-.02-.47-.01-.7.01-.78.04-1.56.04-2.35,0-1.48,0-2.95-.03-4.43-.02-1.27.01-2.54.09-3.8.04-.69.1-1.39.15-2.08,0-.14.02-.28.01-.42,0-.23-.05-.27-.29-.27-.27,0-.54.02-.81.01-.16,0-.33-.03-.49-.07-.3-.09-.47-.35-.47-.65,0-.3.2-.57.5-.62.64-.11,1.28-.16,1.92-.06.55.09.89.46,1,1.01.05.24.08.5.07.75-.02.78-.06,1.56-.09,2.34-.02.55-.06,1.09-.06,1.64,0,1.23.03,2.45.02,3.68,0,1.68-.03,3.35-.04,5.03,0,.22,0,.43,0,.65,0,.2.06.24.26.23.31-.02.62-.06.94-.07.17,0,.35.02.51.07.31.1.5.39.49.7,0,.31-.19.59-.5.69-.2.06-.42.08-.64.11-.14.02-.28.02-.42.03,0,0,0,0,0,.01Z"/>
    <path class="cls-2" d="m90.2,18.43c-.47-.03-.83-.43-.75-.88.03-.17.11-.35.21-.5.52-.73,1.05-1.45,1.6-2.16.39-.51.82-.99,1.23-1.48.15-.18.15-.22,0-.46-.43-.72-.88-1.44-1.29-2.18-.42-.76-.8-1.54-1.19-2.32-.05-.09-.08-.19-.12-.29-.16-.44-.03-.83.32-.98.36-.16.73,0,.94.42.09.17.17.34.25.52.62,1.28,1.39,2.47,2.14,3.67.01.02.03.04.04.06.11.15.16.16.29.04.07-.06.14-.13.21-.2.85-.93,1.7-1.86,2.55-2.79.12-.13.21-.28.33-.4.11-.12.24-.24.38-.31.24-.12.49-.11.71.06.22.17.3.41.23.67-.04.15-.12.31-.22.44-.57.69-1.14,1.38-1.73,2.05-.69.79-1.42,1.55-2.1,2.35-.78.9-1.53,1.82-2.28,2.75-.35.44-.66.91-1,1.37-.09.12-.19.25-.32.34-.13.09-.29.14-.44.2Z"/>
    <path class="cls-2" d="m41.11,9.13c.15-.11.24-.18.34-.25.8-.58,1.68-.8,2.64-.58.94.22,1.49.85,1.68,1.79.03.14.02.3,0,.44-.06.31-.29.53-.6.58-.31.05-.62-.09-.77-.36-.07-.13-.12-.27-.16-.41-.1-.38-.28-.55-.67-.59-.64-.07-1.17.15-1.58.63-.62.71-.88,1.54-.85,2.48.03,1.07.04,2.14.06,3.21,0,.22.02.43.02.65,0,.22,0,.44-.05.65-.07.35-.37.58-.73.59-.34,0-.65-.22-.72-.57-.05-.28-.06-.57-.07-.86-.03-1.09-.04-2.19-.06-3.28-.02-.96-.02-1.91-.04-2.87-.01-.85-.03-1.7-.05-2.55,0-.16,0-.33.05-.49.08-.32.35-.53.68-.55.33-.02.61.16.73.48.06.16.08.34.09.51.02.37.02.75.02,1.12,0,.06.02.13.04.25Z"/>
    <path class="cls-2" d="m84.54,9.12c.11-.06.19-.1.27-.14.71-.42,1.47-.67,2.31-.56.92.12,1.54.62,1.83,1.52.04.13.09.27.1.4.01.16,0,.33-.03.49-.07.31-.32.51-.62.55-.3.03-.59-.12-.73-.4-.07-.14-.11-.29-.15-.44-.11-.49-.33-.68-.84-.66-.46.02-.88.17-1.26.43-.29.2-.53.45-.73.73-.11.14-.16.3-.16.48,0,.66.01,1.32.02,1.98,0,1.09.02,2.19.03,3.28,0,.1,0,.21-.03.31-.07.36-.35.6-.71.62-.36.02-.68-.2-.74-.56-.06-.35-.08-.71-.08-1.06,0-1.35.03-2.69,0-4.04,0-.39,0-.77.02-1.16.05-.91.04-1.82.06-2.73,0-.16.02-.33.06-.49.09-.31.36-.49.67-.48.29,0,.56.2.61.51.05.32.04.66.06.98,0,.13.02.25.04.42Z"/>
    <path class="cls-2" d="m35.1,6.8c.33-.01.66-.02.99-.03.44-.02.74.2.81.64.02.13.03.26.02.39-.07.88-.14,1.77-.23,2.65-.13,1.21-.31,2.41-.44,3.62-.06.53-.06,1.06-.09,1.59,0,.07,0,.14,0,.21.02.17.06.21.23.22.08,0,.16,0,.23,0,.15.02.31.03.46.08.3.11.47.32.49.64.02.31-.13.59-.41.73-.02,0-.03.02-.05.02-.68.18-1.33.16-1.92-.25-.37-.26-.54-.66-.58-1.1-.03-.37-.04-.75-.02-1.12.05-1.01.22-2,.36-3,.17-1.13.32-2.27.47-3.41.04-.28,0-.32-.29-.31-.32,0-.64.02-.96.03-.14,0-.28,0-.41-.03-.33-.07-.57-.37-.57-.72,0-.33.21-.63.53-.72.16-.04.33-.05.49-.06.29-.02.59-.02.89-.03,0,0,0-.02,0-.02Z"/>
    <circle class="cls-2" cx="36.04" cy="3.39" r="1.53"/>
  </g>
</svg>