<?xml version="1.0" encoding="UTF-8"?>
<svg id="Calque_2" data-name="Calque 2" xmlns="http://www.w3.org/2000/svg" viewBox="0 0 235.22 145.53">
  <defs>
    <style>
      .cls-1 {
        fill: #f294ae;
      }

      .cls-2 {
        fill: #f5aa00;
      }

      .cls-3 {
        fill: #fff;
      }

      .cls-4 {
        fill: #64a230;
      }

      .cls-5 {
        fill: #d6a7d9;
      }
    </style>
  </defs>
  <g id="Calque_1-2" data-name="Calque 1">
    <path class="cls-4" d="m34.81,127.21c-1.52.51-2.9.85-4.14,1.03-1.24.18-2.7.27-4.37.27-8.41,0-14.9-2.34-19.46-7.03-4.56-4.69-6.84-11.36-6.84-20.03,0-5.12,1.09-9.64,3.27-13.57,2.18-3.93,5.34-6.99,9.5-9.2,4.15-2.2,9.07-3.31,14.74-3.31,3.75,0,7.14.62,10.18,1.86,3.04,1.24,5.47,3,7.3,5.28,1.82,2.28,2.74,4.89,2.74,7.83,0,3.4-1.22,6.12-3.65,8.17-2.43,2.05-5.65,3.08-9.65,3.08-2.43,0-4.65-.47-6.65-1.41-2-.94-3.6-2.25-4.79-3.95-1.19-1.7-1.79-3.63-1.79-5.81,0-2.74.94-4.91,2.81-6.54,1.87-1.62,4.41-2.43,7.6-2.43.3-.3.46-.63.46-.99,0-.4-.18-.72-.53-.95-.35-.23-.81-.34-1.37-.34-2.03,0-3.91.48-5.66,1.44-1.75.96-3.15,2.31-4.22,4.03s-1.6,3.67-1.6,5.85.42,4.17,1.25,5.81c.84,1.65,2.22,3.26,4.14,4.83.46.36.79.75.99,1.18.2.43.3,1,.3,1.71v18.54c0,1.37.46,2.05,1.37,2.05s1.37-.68,1.37-2.05v-16.49c0-.96.19-1.65.57-2.05.38-.41,1.03-.61,1.94-.61h21.28c.61,0,.91.25.91.76v.91c0,.2-.04.37-.11.49-.08.13-.29.29-.65.49-1.47.81-2.43,1.6-2.89,2.36-.46.76-.68,1.95-.68,3.57v12.54c0,.96-.19,1.65-.57,2.05-.38.41-1.03.61-1.94.61h-11.17Z"/>
    <path class="cls-5" d="m72.66,109.65c0,1.17.99,2.24,2.96,3.23s4.18,1.48,6.61,1.48c4.81,0,8.77-1.62,11.86-4.86.3-.3.52-.49.65-.57.13-.08.32-.11.57-.11h.91c.35,0,.59.13.72.38.13.25.19.71.19,1.37,0,3.14-.85,6.04-2.55,8.7-1.7,2.66-4.1,4.8-7.22,6.42-3.12,1.62-6.6,2.43-10.45,2.43-4.1,0-7.8-.84-11.1-2.51-3.29-1.67-5.92-4.05-7.87-7.14-1.95-3.09-2.93-6.61-2.93-10.56s.91-7.37,2.74-10.41c1.82-3.04,4.42-5.43,7.79-7.18,3.37-1.75,7.31-2.62,11.82-2.62,3.39,0,6.45.53,9.16,1.6,2.71,1.06,4.85,2.58,6.42,4.56,1.57,1.98,2.36,4.26,2.36,6.84,0,3.29-1.19,6.02-3.57,8.17-2.38,2.15-5.4,3.23-9.04,3.23s-6.61-1.22-8.89-3.65c-.3,0-.57.11-.8.34-.23.23-.34.52-.34.87Zm2.28-5.24c.3.41.71.61,1.22.61.91,0,1.37-.51,1.37-1.52v-10.79c0-1.01-.46-1.52-1.37-1.52-.51,0-.91.2-1.22.61v12.62Z"/>
    <path class="cls-1" d="m102.98,88.6c4.36,0,7.32,1.29,8.89,3.88,1.47-1.62,3.12-2.82,4.94-3.61,1.82-.79,3.93-1.18,6.31-1.18,3.7,0,6.74,1.01,9.12,3.04,2.38,2.03,3.57,4.61,3.57,7.75,0,2.63-.96,4.78-2.89,6.42-1.93,1.65-4.41,2.47-7.45,2.47s-5.43-.76-7.33-2.28c-1.9-1.52-2.85-3.44-2.85-5.78,0-1.98.68-3.6,2.05-4.86,1.37-1.27,3.12-1.9,5.24-1.9.15-.25.23-.51.23-.76,0-.71-.53-1.06-1.6-1.06-2.23,0-4.15.85-5.78,2.55-1.62,1.7-2.43,3.74-2.43,6.12,0,2.03.57,3.81,1.71,5.36,1.14,1.55,2.77,2.77,4.9,3.69.71.3,1.18.65,1.41,1.03s.34,1.03.34,1.94v13.38c0,1.62-.86,2.43-2.58,2.43h-15.43c-1.57,0-2.36-.81-2.36-2.43v-26.83c0-1.77-.25-3.13-.76-4.07-.51-.94-1.44-1.81-2.81-2.62-.35-.2-.57-.37-.65-.49-.08-.13-.11-.29-.11-.49v-.91c0-.51.3-.76.91-.76h5.4Z"/>
    <path class="cls-2" d="m139.84,95.21c-.3-.86-.72-1.57-1.25-2.13-.53-.56-1.33-1.17-2.39-1.82-.51-.3-.76-.63-.76-.99v-.91c0-.51.3-.76.91-.76h11.86c3.44,0,5.99.27,7.64.8,1.65.53,2.94,1.46,3.88,2.77.94,1.32,1.84,3.27,2.7,5.85l7.3,22.04c.25.25.56.38.91.38.76,0,1.14-.43,1.14-1.29,0-.51-.2-1.34-.61-2.51l-6.84-20.9c-.66-2.03-1.24-3.34-1.75-3.95-.46-.56-.75-.92-.87-1.1-.13-.18-.19-.39-.19-.65v-.68c0-.51.3-.76.91-.76h21.51c1.82,0,2.74.66,2.74,1.98,0,1.22-1.29,5.37-3.88,12.46-2.58,7.09-6.11,16.11-10.56,27.06-1.62,4-3.22,7.11-4.79,9.31-1.57,2.2-3.31,3.77-5.21,4.71-1.9.94-4.14,1.41-6.73,1.41-3.75,0-6.78-.84-9.08-2.51-2.31-1.67-3.46-3.88-3.46-6.61,0-2.38.94-4.31,2.81-5.78,1.87-1.47,4.31-2.2,7.3-2.2,2.79,0,5.07.67,6.84,2.01,1.77,1.34,2.66,3.08,2.66,5.21,0,1.62-.55,2.88-1.63,3.76-1.09.89-2.62,1.33-4.6,1.33-.1.2-.15.43-.15.68,0,.71.58,1.06,1.75,1.06,1.98,0,3.62-.67,4.94-2.01,1.32-1.34,1.98-3.03,1.98-5.05,0-2.38-.84-4.34-2.51-5.89-1.67-1.55-4.1-2.6-7.3-3.15-1.82-.3-3.02-.71-3.57-1.22-.56-.51-1.14-1.62-1.75-3.34l-9.88-26.6Z"/>
    <path class="cls-2" d="m28.04,18.32c-3.29,0-6.06,1.09-8.28,3.27-2.23,2.18-3.34,4.86-3.34,8.06,0,4,1.46,7.3,4.37,9.88,2.91,2.58,6.65,3.88,11.21,3.88,2.69,0,5.21-.51,7.56-1.52s4.29-2.41,5.81-4.18c.3-.35.53-.59.68-.72.15-.13.33-.19.53-.19h1.14c.35,0,.62.14.8.42.18.28.34.82.49,1.63.2,1.01.3,2.15.3,3.42,0,4.71-.99,8.98-2.96,12.81-1.98,3.83-4.76,6.88-8.36,9.16-3.6,2.28-7.73,3.42-12.39,3.42s-9.01-1.12-12.88-3.34c-3.88-2.23-6.97-5.42-9.27-9.58-2.31-4.15-3.46-8.89-3.46-14.21,0-4.96,1.04-9.41,3.12-13.34,2.08-3.93,5.04-7.02,8.89-9.27,3.85-2.25,8.31-3.38,13.38-3.38,3.8,0,7.22.62,10.26,1.86,3.04,1.24,5.46,3,7.26,5.28,1.8,2.28,2.7,4.89,2.7,7.83,0,3.4-1.22,6.12-3.65,8.17-2.43,2.05-5.65,3.08-9.65,3.08-2.43,0-4.65-.47-6.65-1.41-2-.94-3.6-2.25-4.79-3.95-1.19-1.7-1.79-3.63-1.79-5.81,0-2.74.94-4.91,2.81-6.54,1.87-1.62,4.41-2.43,7.6-2.43.3-.3.46-.63.46-.99,0-.4-.18-.72-.53-.95-.35-.23-.81-.34-1.37-.34Z"/>
    <path class="cls-1" d="m52.82,21.05c0-1.77-.25-3.13-.76-4.07-.51-.94-1.44-1.81-2.81-2.62-.35-.2-.57-.37-.65-.49-.08-.13-.11-.29-.11-.49v-.91c0-.51.3-.76.91-.76h20.06c.96,0,1.63.19,2.01.57s.57,1,.57,1.86v40.74c0,.86.08,1.44.23,1.75.15.3.4.46.76.46.46,0,.77-.18.95-.53.18-.35.37-1.17.57-2.43.1-.86.2-1.38.3-1.56.1-.18.3-.27.61-.27h1.29c.3,0,.52.18.65.53.13.36.19.96.19,1.82,0,4.05-1.09,7.17-3.27,9.35-2.18,2.18-5.3,3.27-9.35,3.27s-6.9-1.1-9.01-3.31c-2.1-2.2-3.15-5.36-3.15-9.46V21.05Z"/>
    <path class="cls-4" d="m113.39,67.26c-5.12,0-8.77-2.1-10.94-6.31-1.17,2.18-2.6,3.78-4.29,4.79-1.7,1.01-3.79,1.52-6.27,1.52-3.5,0-6.31-.86-8.44-2.58-2.13-1.72-3.19-4-3.19-6.84,0-2.48.87-4.45,2.62-5.89,1.75-1.44,4.45-2.42,8.09-2.93,9.32-1.22,13.98-4.74,13.98-10.56,0-2.33-.81-4.34-2.43-6.04-1.62-1.7-3.55-2.55-5.78-2.55-1.06,0-1.6.36-1.6,1.06,0,.25.08.51.23.76,2.13,0,3.88.63,5.24,1.9,1.37,1.27,2.05,2.89,2.05,4.86,0,2.33-.98,4.26-2.93,5.78-1.95,1.52-4.45,2.28-7.49,2.28s-5.55-.77-7.37-2.32c-1.82-1.54-2.74-3.58-2.74-6.12,0-3.39,1.65-6.12,4.94-8.17,3.29-2.05,7.65-3.08,13.07-3.08,6.48,0,11.41,1.57,14.78,4.71,3.37,3.14,5.05,7.75,5.05,13.83v9.5c0,.86.08,1.44.23,1.75.15.3.41.46.76.46.46,0,.78-.2.99-.61.2-.41.38-1.19.53-2.36.1-.86.2-1.38.3-1.56.1-.18.3-.27.61-.27h1.29c.3,0,.52.18.65.53.13.36.19.94.19,1.75,0,4.05-1.05,7.18-3.15,9.39-2.1,2.2-5.1,3.31-9.01,3.31Zm-12.24-16.42c-.3-.41-.71-.61-1.22-.61-.86,0-1.29.51-1.29,1.52v4.86c0,1.01.43,1.52,1.29,1.52.51,0,.91-.2,1.22-.61v-6.69Z"/>
    <path class="cls-1" d="m145.31,27.74c.96,0,1.63.19,2.01.57s.57,1,.57,1.86v24.7c0,.86.08,1.44.23,1.75.15.3.4.46.76.46.46,0,.77-.18.95-.53.18-.35.37-1.17.57-2.43.1-.86.2-1.38.3-1.56.1-.18.3-.27.61-.27h1.29c.3,0,.52.18.65.53.13.36.19.96.19,1.82,0,4.05-1.09,7.17-3.27,9.35-2.18,2.18-5.3,3.27-9.35,3.27s-6.9-1.1-9.01-3.31c-2.1-2.2-3.15-5.36-3.15-9.46v-17.4c0-1.77-.25-3.13-.76-4.07-.51-.94-1.44-1.81-2.81-2.62-.35-.2-.57-.37-.65-.49-.08-.13-.11-.29-.11-.49v-.91c0-.51.3-.76.91-.76h20.06Zm-17.48-10.64c0-2.28.89-4.1,2.66-5.47,1.77-1.37,4.15-2.05,7.14-2.05s5.38.68,7.18,2.05c1.8,1.37,2.7,3.19,2.7,5.47s-.9,4.03-2.7,5.4c-1.8,1.37-4.19,2.05-7.18,2.05s-5.37-.67-7.14-2.01c-1.77-1.34-2.66-3.15-2.66-5.43Z"/>
    <path class="cls-5" d="m158.84,27.74c4.36,0,7.32,1.29,8.89,3.88,1.47-1.62,3.12-2.82,4.94-3.61,1.82-.79,3.93-1.18,6.31-1.18,3.7,0,6.74,1.01,9.12,3.04,2.38,2.03,3.57,4.61,3.57,7.75,0,2.63-.96,4.78-2.89,6.42-1.93,1.65-4.41,2.47-7.45,2.47s-5.43-.76-7.33-2.28c-1.9-1.52-2.85-3.44-2.85-5.78,0-1.98.68-3.6,2.05-4.86,1.37-1.27,3.12-1.9,5.24-1.9.15-.25.23-.51.23-.76,0-.71-.53-1.06-1.6-1.06-2.23,0-4.15.85-5.78,2.55-1.62,1.7-2.43,3.74-2.43,6.12,0,2.03.57,3.81,1.71,5.36,1.14,1.55,2.77,2.77,4.9,3.69.71.3,1.18.65,1.41,1.03s.34,1.03.34,1.94v13.38c0,1.62-.86,2.43-2.58,2.43h-15.43c-1.57,0-2.36-.81-2.36-2.43v-26.83c0-1.77-.25-3.13-.76-4.07-.51-.94-1.44-1.81-2.81-2.62-.35-.2-.57-.37-.65-.49-.08-.13-.11-.29-.11-.49v-.91c0-.51.3-.76.91-.76h5.4Z"/>
    <path class="cls-4" d="m210.74,48.79c0,1.17.99,2.24,2.96,3.23,1.98.99,4.18,1.48,6.61,1.48,4.81,0,8.77-1.62,11.86-4.86.3-.3.52-.49.65-.57.13-.08.32-.11.57-.11h.91c.35,0,.59.13.72.38.13.25.19.71.19,1.37,0,3.14-.85,6.04-2.55,8.7-1.7,2.66-4.1,4.8-7.22,6.42-3.12,1.62-6.6,2.43-10.45,2.43-4.1,0-7.8-.84-11.1-2.51-3.29-1.67-5.92-4.05-7.87-7.14-1.95-3.09-2.93-6.61-2.93-10.56s.91-7.37,2.74-10.41,4.42-5.43,7.79-7.18c3.37-1.75,7.31-2.62,11.82-2.62,3.39,0,6.45.53,9.16,1.6,2.71,1.06,4.85,2.58,6.42,4.56,1.57,1.98,2.36,4.26,2.36,6.84,0,3.29-1.19,6.02-3.57,8.17-2.38,2.15-5.4,3.23-9.04,3.23s-6.61-1.22-8.89-3.65c-.3,0-.57.11-.8.34-.23.23-.34.52-.34.87Zm2.28-5.24c.3.41.71.61,1.22.61.91,0,1.37-.51,1.37-1.52v-10.79c0-1.01-.46-1.52-1.37-1.52-.51,0-.91.2-1.22.61v12.62Z"/>
    <g>
      <circle class="cls-1" cx="136.66" cy="3.59" r="3.59"/>
      <circle class="cls-1" cx="146.64" cy="12.42" r="3.59"/>
      <circle class="cls-1" cx="136.97" cy="13.05" r="7.63"/>
      <circle class="cls-1" cx="143.41" cy="6.03" r="3.59"/>
      <circle class="cls-1" cx="130.15" cy="6.51" r="3.59"/>
      <circle class="cls-1" cx="144.6" cy="19.3" r="3.59"/>
      <circle class="cls-1" cx="127.25" cy="13.07" r="3.59"/>
      <circle class="cls-1" cx="138.41" cy="22.89" r="3.59"/>
      <circle class="cls-1" cx="131.44" cy="21.34" r="3.59"/>
      <circle class="cls-1" cx="128.18" cy="17.36" r="3.59"/>
      <circle class="cls-1" cx="128.02" cy="9.62" r="3.59"/>
      <circle class="cls-1" cx="133.24" cy="4.35" r="3.59"/>
      <circle class="cls-1" cx="140.25" cy="4.14" r="3.59"/>
      <circle class="cls-1" cx="145.59" cy="9.02" r="3.59"/>
      <circle class="cls-1" cx="146.24" cy="16.36" r="3.59"/>
      <circle class="cls-1" cx="141.6" cy="21.82" r="3.59"/>
      <circle class="cls-1" cx="135.03" cy="22.75" r="3.59"/>
      <g>
        <circle class="cls-3" cx="136.97" cy="13.07" r="7.03"/>
        <circle class="cls-2" cx="136.97" cy="13.07" r="5.95"/>
        <circle class="cls-2" cx="136.97" cy="13.07" r="3.13"/>
      </g>
    </g>
  </g>
</svg>