<?xml version="1.0" encoding="UTF-8"?>
<svg id="Calque_2" data-name="Calque 2" xmlns="http://www.w3.org/2000/svg" viewBox="0 0 46.16 9.58">
  <defs>
    <style>
      .cls-1 {
        fill: #00c;
        stroke-width: 0px;
      }
    </style>
  </defs>
  <g id="Calque_2-2" data-name="Calque 2">
    <g>
      <path class="cls-1" d="m28.08,5.75c.01.5.05.97.16,1.43.05.22.12.44.22.65.18.36.47.58.87.64.43.06.84-.02,1.2-.28.23-.17.39-.4.5-.65.14-.31.22-.63.26-.97.02-.16.03-.32.03-.49,0-.15-.04-.2-.19-.23-.11-.02-.22-.04-.33-.04-.29-.02-.59-.03-.88-.03-.13,0-.26.02-.39.03-.07,0-.15,0-.22,0-.17-.03-.28-.15-.3-.31-.02-.16.06-.32.21-.39.05-.02.1-.04.15-.05.13-.02.25-.05.38-.05.5-.01.99,0,1.49.07.06,0,.12.02.18.04.42.12.67.42.7.86.01.2,0,.4-.02.61-.05.48-.16.95-.38,1.38-.41.82-1.07,1.25-1.99,1.31-.34.02-.66-.03-.97-.15-.52-.21-.85-.61-1.07-1.11-.17-.39-.26-.8-.3-1.23-.04-.35-.07-.69-.08-1.04-.03-.88.03-1.76.23-2.62.12-.52.28-1.03.55-1.49.27-.47.62-.86,1.09-1.14.34-.2.7-.31,1.1-.28.56.04.96.33,1.21.83.15.3.2.63.23.96.03.37,0,.74-.05,1.1-.01.06-.03.13-.05.19-.03.06-.06.13-.11.18-.11.11-.27.14-.4.08-.13-.06-.2-.19-.18-.35.02-.14.06-.28.06-.42.03-.43.03-.85-.11-1.27-.02-.06-.04-.12-.07-.17-.15-.28-.42-.41-.74-.35-.35.07-.63.24-.87.49-.36.35-.57.79-.72,1.26-.16.5-.25,1.01-.31,1.52-.05.5-.08,1.01-.05,1.49Z"/>
      <path class="cls-1" d="m.8,4.91c.02.75.12,1.48.38,2.19.1.27.22.53.39.77.32.46.78.56,1.29.35.32-.13.55-.37.71-.68.15-.3.2-.62.25-.94.02-.12.05-.24.1-.35.07-.15.23-.23.38-.2.17.03.27.14.31.3.02.06.03.14.02.2-.04.5-.14,1-.39,1.44-.28.5-.69.86-1.24,1.04-.5.16-.99.15-1.46-.11-.34-.19-.58-.47-.78-.8-.28-.49-.47-1.01-.59-1.55C.02,5.85-.02,5.1,0,4.35c.03-.71.11-1.41.31-2.09.14-.48.34-.94.65-1.34.28-.37.62-.66,1.06-.82.73-.26,1.49.03,1.87.7.16.29.26.6.3.93.05.36.06.73,0,1.1-.02.1-.04.2-.08.29-.08.18-.25.26-.42.21-.17-.05-.27-.21-.25-.4.01-.13.04-.25.05-.38.03-.4-.01-.8-.16-1.17-.03-.08-.07-.15-.11-.22-.2-.31-.53-.41-.88-.3-.28.1-.49.28-.67.51-.3.37-.48.8-.59,1.26-.14.58-.21,1.17-.23,1.76,0,.17-.01.34-.02.52Z"/>
      <path class="cls-1" d="m35.82,9.24c-.6.04-1.15-.11-1.61-.52-.36-.32-.56-.73-.63-1.2-.04-.24-.05-.48-.07-.72-.01-.15-.02-.16-.18-.18-.18-.02-.36-.04-.54-.07-.07-.01-.14-.04-.2-.07-.15-.09-.22-.26-.17-.42.05-.15.2-.25.37-.24.15.01.31.03.46.05.05,0,.11,0,.16.01.16,0,.16,0,.2-.15.08-.38.22-.74.44-1.06.26-.39.61-.67,1.06-.83.44-.16.89-.17,1.33-.02.67.21,1.11.9,1.03,1.59-.04.35-.16.67-.42.92-.14.14-.31.24-.51.3-.23.07-.47.11-.71.1-.46-.01-.91-.02-1.37-.04-.12,0-.14.01-.14.12,0,.32.04.63.16.91.2.45.57.65,1.04.69.13.01.26,0,.39-.02.28-.04.48-.2.62-.44.06-.1.1-.2.16-.3.06-.11.15-.19.28-.21.23-.04.44.11.46.34,0,.07,0,.15-.03.21-.26.71-.79,1.17-1.55,1.23-.01,0-.03,0-.04,0Zm-.04-3.29s0,0,0,0c.13,0,.25-.03.38-.05.18-.03.32-.11.42-.27.19-.35.09-.93-.45-1.06-.41-.1-.79-.02-1.12.24-.33.26-.49.62-.58,1.02-.02.08,0,.11.11.11.42,0,.83.01,1.25.02Z"/>
      <path class="cls-1" d="m22.2,6.59c-.45,0-.93-.01-1.41-.02-.07,0-.14,0-.2,0-.11,0-.13.02-.12.13.01.17.03.34.06.51.05.24.14.47.29.67.17.22.38.37.66.43.37.07.73.06,1.08-.1.18-.08.33-.21.4-.4.02-.04.03-.08.06-.12.11-.21.32-.31.52-.23.19.08.29.28.23.51-.08.28-.23.53-.45.73-.26.22-.56.35-.89.42-.42.08-.83.08-1.24-.03-.61-.17-1.01-.58-1.26-1.15-.17-.39-.25-.8-.26-1.23,0-.02,0-.04,0-.05,0-.09-.02-.11-.11-.11-.14,0-.27,0-.41-.01-.08,0-.16-.01-.24-.03-.15-.05-.24-.19-.24-.34,0-.15.1-.28.25-.32.08-.02.16-.03.24-.03.15,0,.31,0,.46,0,.13,0,.14,0,.17-.13.11-.4.28-.78.53-1.11.29-.38.64-.68,1.11-.81.49-.14.94-.06,1.37.21.5.32.72.79.76,1.37.02.25-.02.5-.15.72-.15.26-.38.43-.67.49-.16.03-.32.05-.51.07Zm-1.62-.8c.11,0,.19.01.28.01.16,0,.32,0,.47,0,.33,0,.65-.02.98-.03.06,0,.13-.02.19-.03.13-.03.2-.12.22-.25.04-.22-.02-.41-.12-.6-.08-.14-.19-.25-.34-.32-.36-.17-.7-.11-1,.13-.31.25-.51.57-.64.94-.01.04-.02.08-.03.14Z"/>
      <path class="cls-1" d="m11.07,7.54c-.04.08-.06.12-.08.17-.15.37-.37.69-.69.92-.28.21-.6.32-.95.29-.29-.03-.54-.15-.73-.37-.16-.19-.26-.41-.3-.66-.15-1,.59-1.82,1.42-1.99.19-.04.37-.06.57-.04.1.01.13-.01.12-.11-.03-.36-.07-.72-.22-1.06-.13-.28-.32-.5-.6-.64-.3-.15-.55-.06-.71.23-.14.28-.17.58-.14.89.01.1.03.21.04.31,0,.07,0,.15,0,.22-.03.14-.12.23-.26.26-.15.03-.27-.02-.36-.14-.04-.05-.06-.11-.08-.17-.12-.49-.14-.99.03-1.47.12-.36.33-.66.67-.84.38-.2.76-.18,1.14,0,.54.24.89.66,1.09,1.21.15.42.22.86.22,1.31,0,.27.05.49.25.69.27.29.39.67.46,1.06.04.21.07.42.1.63,0,.07,0,.15,0,.22-.03.2-.18.33-.37.34-.19,0-.35-.12-.4-.31-.03-.14-.05-.29-.08-.43-.02-.13-.05-.26-.08-.39,0-.03-.03-.06-.06-.12Zm-1.97.1c.02.09.04.19.07.27.07.17.22.24.4.19.22-.06.38-.2.51-.39.18-.26.26-.55.31-.86.02-.12,0-.15-.13-.17-.16-.03-.31,0-.45.05-.41.14-.69.51-.7.92Z"/>
      <path class="cls-1" d="m13.93,1.91s-.01.06-.02.08c-.02.1-.04.2-.1.29-.04.07-.1.12-.17.14-.12.04-.24-.01-.3-.13-.06-.1-.07-.21-.05-.32,0-.04.02-.08.02-.12,0-.02,0-.04.01-.07-.04,0-.08,0-.11,0-.09,0-.18-.01-.26-.05-.12-.06-.18-.17-.15-.3.01-.06.04-.1.08-.14.05-.05.12-.08.19-.1.02,0,.04-.01.07-.02-.01-.03-.02-.06-.03-.09-.05-.12-.07-.25-.06-.39,0-.04.01-.09.03-.13.05-.14.2-.18.33-.11.1.06.16.14.21.24.01.03.03.05.04.09.02-.03.04-.04.06-.06.09-.12.21-.21.36-.25.08-.02.16-.02.23.02.09.04.15.11.17.21.02.13,0,.24-.08.34-.05.06-.11.12-.16.17-.02.02-.03.03-.06.05.03.02.05.03.07.04.1.04.2.09.29.16.04.04.09.08.12.13.14.2.03.43-.21.46-.15.02-.29-.03-.41-.11-.02-.02-.05-.03-.08-.05Z"/>
      <path class="cls-1" d="m6.81,8.82c-.09,0-.18,0-.27,0-.51.01-.82-.26-.87-.77-.01-.12,0-.24,0-.37,0-.41.02-.81.02-1.22,0-.77,0-1.54-.01-2.31,0-.66,0-1.32.05-1.98.02-.36.05-.72.08-1.08,0-.07,0-.14,0-.22,0-.12-.03-.14-.15-.14-.14,0-.28.01-.42,0-.08,0-.17-.01-.25-.04-.16-.05-.25-.18-.24-.34,0-.15.1-.29.26-.32.33-.05.67-.08,1-.03.29.05.46.24.52.52.03.13.04.26.04.39,0,.41-.03.81-.05,1.22-.01.28-.03.57-.03.85,0,.64.01,1.28.01,1.91,0,.87-.01,1.75-.02,2.62,0,.11,0,.23,0,.34,0,.1.03.13.14.12.16,0,.32-.03.49-.04.09,0,.18.01.27.04.16.05.26.2.26.36,0,.16-.1.31-.26.36-.11.03-.22.04-.33.06-.07,0-.14.01-.22.02,0,0,0,0,0,0Z"/>
      <path class="cls-1" d="m41.93,9.58c-.25-.02-.43-.22-.39-.46.02-.09.06-.18.11-.26.27-.38.55-.75.83-1.12.2-.26.43-.52.64-.77.08-.09.08-.11,0-.24-.22-.38-.46-.75-.67-1.13-.22-.4-.42-.8-.62-1.21-.02-.05-.04-.1-.06-.15-.08-.23-.01-.43.17-.51.19-.08.38,0,.49.22.05.09.09.18.13.27.32.67.72,1.29,1.11,1.91,0,.01.01.02.02.03.06.08.08.08.15.02.04-.03.07-.07.11-.1.44-.48.89-.97,1.33-1.45.06-.07.11-.14.17-.21.06-.06.12-.12.2-.16.12-.06.26-.06.37.03.11.09.16.21.12.35-.02.08-.06.16-.12.23-.3.36-.59.72-.9,1.07-.36.41-.74.81-1.1,1.22-.4.47-.8.95-1.19,1.43-.18.23-.35.48-.52.71-.05.06-.1.13-.16.18-.07.05-.15.07-.23.1Z"/>
      <path class="cls-1" d="m16.25,4.43c.08-.06.13-.09.18-.13.41-.3.87-.42,1.37-.3.49.12.78.44.88.93.01.07,0,.15,0,.23-.03.16-.15.28-.31.3-.16.03-.32-.05-.4-.19-.04-.07-.06-.14-.08-.21-.05-.2-.15-.28-.35-.31-.33-.04-.61.08-.82.33-.32.37-.46.8-.44,1.29.01.56.02,1.11.03,1.67,0,.11.01.23,0,.34,0,.11,0,.23-.02.34-.03.18-.19.3-.38.31-.18,0-.34-.12-.37-.3-.03-.15-.03-.3-.04-.45-.01-.57-.02-1.14-.03-1.71,0-.5-.01-1-.02-1.49,0-.44-.02-.89-.02-1.33,0-.09,0-.17.02-.26.04-.17.18-.28.36-.29.17-.01.32.08.38.25.03.08.04.18.05.26,0,.19,0,.39.01.58,0,.03.01.07.02.13Z"/>
      <path class="cls-1" d="m38.98,4.74c.06-.03.1-.05.14-.07.37-.22.77-.35,1.2-.29.48.06.8.32.95.79.02.07.05.14.05.21,0,.08,0,.17-.01.25-.04.16-.17.27-.32.29-.16.02-.31-.06-.38-.21-.04-.07-.06-.15-.08-.23-.06-.26-.17-.35-.44-.34-.24,0-.46.09-.66.23-.15.1-.27.24-.38.38-.06.08-.09.16-.08.25,0,.34,0,.69,0,1.03,0,.57.01,1.14.01,1.71,0,.05,0,.11-.01.16-.03.19-.18.31-.37.32-.19,0-.35-.1-.39-.29-.03-.18-.04-.37-.04-.55,0-.7.02-1.4,0-2.1,0-.2,0-.4.01-.61.02-.47.02-.95.03-1.42,0-.09,0-.17.03-.25.05-.16.19-.25.35-.25.15,0,.29.11.32.27.03.17.02.34.03.51,0,.07.01.13.02.22Z"/>
      <path class="cls-1" d="m13.12,3.22c.17,0,.34,0,.52-.02.23-.01.38.1.42.33.01.07.01.14,0,.2-.04.46-.07.92-.12,1.38-.07.63-.16,1.26-.23,1.89-.03.27-.03.55-.05.83,0,.04,0,.07,0,.11.01.09.03.11.12.12.04,0,.08,0,.12,0,.08.01.16.02.24.04.15.05.24.17.26.33.01.16-.07.3-.21.38,0,0-.02,0-.02.01-.35.09-.69.08-1-.13-.19-.13-.28-.34-.3-.57-.02-.19-.02-.39-.01-.58.03-.52.11-1.04.19-1.56.09-.59.17-1.18.25-1.78.02-.15,0-.17-.15-.16-.17,0-.33.01-.5.01-.07,0-.15,0-.22-.02-.17-.04-.3-.19-.3-.37,0-.17.11-.33.28-.37.08-.02.17-.03.25-.03.15,0,.31-.01.46-.02,0,0,0,0,0-.01Z"/>
    </g>
  </g>
</svg>